<svg xmlns="http://www.w3.org/2000/svg" height="800" width="1200" viewBox="-75 -102.7245 650 616.347"><path fill="#fff" stroke-width="8.727" stroke-miterlimit="2.613" stroke="#2c3f7e" d="M29.982 4.364h440.036c14.09 0 25.618 11.609 25.618 25.799v350.573c0 14.182-11.535 25.799-25.618 25.799H29.982c-14.09 0-25.618-11.61-25.618-25.8V30.164c0-14.19 11.527-25.8 25.618-25.8z"/><path fill="#2c3f7e" d="M495.613 92.388v288.345c0 14.177-11.54 25.798-25.615 25.798H29.963c-14.076 0-25.622-11.608-25.622-25.798V92.388z"/><path fill="#fff" d="M82.104 192.507l91.956.202c5.842.719 9.009 6.334 7.337 11.425l-14.126 42.915c-1.224 2.24-3.912 3.874-7.274 5.25 3.142 3.021 3.274 6.605 1.71 10.498-5.742 14.87-10.55 27.375-16.29 42.245-1.086 3.622-6.36 7.874-11.389 7.47l-92.283.095c-1.256-.84-1.085-3.142.65-7.199 13.52-41.394 26.971-81.823 39.71-112.901m15.88 67.797l-12.783 36.984c.297 1.136 2.353 1.679 6.17 1.634 4.58 1.142 8.202-.757 10.43-7.104l8.965-23.671c1.173-6.07-.638-8.385-5.73-8.14zm18.605-55.06l-12.782 36.991c.296 1.136 2.353 1.672 6.17 1.628 4.587 1.142 8.202-.757 10.435-7.104l8.96-23.672c1.173-6.063-.638-8.385-5.73-8.132zm130.756-88.056l-53.09 73.987h6.832l-38.391 121.363 24.347.012-22.574 72.675 50.864-70.908-6.978-.006 18.902-55.508 14.618 1.312-15.501 52.448 21.899-.019-23.161 75.766 55.501-73.898-7.659-.177 40.397-121.45h-25.937l22.391-74.019-1.3.177-49.728 69.053-2.466 2.915 7.526.208-17.173 54.164-14.864-.713 16.29-51.849-24.303.076 23.558-75.608zm83.331 75.546l70.586.202c-.397 4.788-1.653 8.65-3.754 11.583l-24.523.6-13.64 40.138 23.33.801c-.176 4.915-1.482 9.319-3.564 13.376l-24.587.113-14.006 38.568 23.609 1.855c.322 4.536-.87 8.89-3.3 13.098l-68.491-.41c-2.05-.234-3.149-1.477-2.158-4.953 12.965-39.13 26.107-77.993 40.498-114.971m82.044-.057l46.309 1.255-34.088 104.7 23.305.682c.234 5.312-1.394 9.848-4.416 13.798l-70.195-.41-.398-6.354 39.483-113.671"/><path fill="#2c3f7e" d="M48.246 26.128h48.018l2.505-8.688c1.08-2.454 3.306-3.899 6.682-4.334l18.441.322c2.902.05 4.549 3.35 3.887 5.76l-1.918 6.94h11.457l-1.42 6.202h-11.747l-14.707 53.318-11.243-.334L112.94 32.33h-7.236l-14.99 52.99-11.433-.215 2.656-9.23h-19.21c-3.528 0-5.755-3.893-4.398-8.473l7.407-25.04c1.097-3.704 4.92-4.5 10.063-4.607l16.82-.36.568.007h.006l1.287-5.072H46.7l1.546-6.202zm103.419 3.975l-6.852 24.624c-1.01 3.615-1.072 6.826.536 9.729l11.42 20.561 12.561.013-13.192-23.098c-.965-1.697-1.293-2.675-.442-5.937l6.978-26.7-.788 3.035h13.167l.164-.606-5.988 22.019c-.34 1.262-.763 2.214-2.353 2.454l-3.11.044-2.202 6.265 10.757.183c3.716.063 6.637-2.284 7.735-6.378l6.397-23.981h42.158l-10.145 36.775-11.262-.056c-2.89-.02-2.076-3.022-1.748-4.057l6.909-21.817 4.927.044 1.988-6.132-26.24-.335-1.773 6.24 8.536.076-6.441 23.116c-1.23 4.423.063 9.06 4.246 9.117l18.839.252.404-.593-2.776 10.07 11.186.366 15.463-54.499-.41 1.433h9.817l1.426-6.202H146.081l-1.514 6.202h6.48l.618-2.227zM417.619 85.13l11.439-40.259c-.347-.77-.846-1.634-1.603-1.634h-2.953c-1.848 0-3.028.486-3.28 1.546l-4.234 17.672h-10.99l3.98-15.439c.285-1.098 1.143-3.489-.706-3.577l-3.968-.202c-1.483-.076-2.101.72-2.284 1.407l-10.984 40.454-11.458.151 11.735-42.22c.96-3.458 3.73-5.905 6.732-5.905h15.262c2.549.094 3.514 1.463 3.754 3.413 1.438-2.183 3.016-3.9 5.142-3.76h4.637c1.445 0 2.713.258 3.306.757l2.713-9.552-1.237 4.347h-45.274l-6.404 23.98c-1.091 4.095-4.012 6.442-7.728 6.38l-10.757-.184 2.195-6.265 3.117-.044c1.59-.24 2.006-1.192 2.353-2.454l5.988-22.019-.164.606h-13.174l.795-3.035-6.978 26.7c-.852 3.262-.53 4.24.442 5.937l13.192 23.098-12.568-.013-11.413-20.561c-1.615-2.903-1.546-6.114-.542-9.729l6.851-24.624-.618 2.227h-7.388l1.514-6.202H453.26l-1.646 6.202h-7.767l1.01-3.61-15.88 56.625-11.357-.214zm-146.712 1.66l3.167-9.609c-3.716-4.877-2.39-10.397 3.868-11.501 6.6-1.168 8.277.877 8.738 3.274l4.12.133c.965.025 1.665-.852 2.025-2.045l1.18-5.798c.29-1.438.435-2.687-.984-2.706l-11.426-.19c-3.47-.056-4.53-2.51-3.874-5.45l2.296-10.234c.72-3.186 3.477-5.514 7.174-5.47l12.259.151c1.772.02 1.772-1.325 2.12-2.586l.662-2.43h-43.489l1.514-6.201h43.672l2.1-7.685c.733-2.656 2.796-5.564 6.625-5.533l19.256.19c4.139 1.369 4.126 4.788 2.227 9.381l-11.11.271.965-3.627-6-.108-2.019 7.11h21.382l-1.42 6.203H314.22l-3.11 10.965-17.704-.234c-1.552-.018-2.706.493-2.971 1.603l-1.161 4.908c-.334 1.407-.152 2.55 1.079 2.55l12.65-.007c2.612 0 3.962 4.36 2.902 8.114l-2.694 9.488c-.953 3.363-4.234 6.499-7.634 6.398l-10.467-.31-2.883 11.067-11.319-.082zm-163.45-60.662l1.672-5.906c.227-1.028.422-1.255 1.716-1.198l4.915.132c.675.107.7.663.53 1.13l-2.41 8.668.782-2.826zm-28.183 43.21h-6.959c-2.031 0-2.877-.845-2.151-3.602l3.615-13.703-1.193-3.748zm2.208-25.463l9.167-.202-3.943 14.265z" fill-rule="evenodd"/></svg>